<svg width="35" height="35" viewBox="0 0 64 58" fill="none" xmlns="http://www.w3.org/2000/svg">
<path d="M54.8653 33.2828V54.7458C54.8653 55.5208 54.6139 56.1916 54.1111 56.7579C53.6083 57.3243 53.0128 57.6075 52.3247 57.6075H37.0812V40.4372H26.9188V57.6075H11.6753C10.9872 57.6075 10.3917 57.3243 9.8889 56.7579C9.38608 56.1916 9.13467 55.5208 9.13467 54.7458V33.2828C9.13467 33.253 9.14128 33.2083 9.15451 33.1487C9.16775 33.0891 9.17436 33.0444 9.17436 33.0145L32 11.8199L54.8256 33.0145C54.8521 33.0742 54.8653 33.1636 54.8653 33.2828ZM63.7177 30.1975L61.2565 33.5064C61.0448 33.7747 60.7669 33.9386 60.4229 33.9983H60.3038C59.9597 33.9983 59.6819 33.8939 59.4702 33.6853L32 7.88501L4.52984 33.6853C4.21227 33.9237 3.89469 34.0281 3.57712 33.9983C3.23308 33.9386 2.9552 33.7747 2.74349 33.5064L0.282288 30.1975C0.070572 29.8994 -0.0220538 29.5492 0.00441075 29.1467C0.0308753 28.7443 0.17643 28.4239 0.441075 28.1854L28.983 1.40141C29.8299 0.626356 30.8356 0.238831 32 0.238831C33.1644 0.238831 34.1701 0.626356 35.017 1.40141L44.703 10.5232V1.80384C44.703 1.3865 44.8221 1.04369 45.0602 0.775404C45.2984 0.507117 45.6028 0.372974 45.9733 0.372974H53.595C53.9655 0.372974 54.2699 0.507117 54.5081 0.775404C54.7462 1.04369 54.8653 1.3865 54.8653 1.80384V20.0473L63.5589 28.1854C63.8236 28.4239 63.9691 28.7443 63.9956 29.1467C64.0221 29.5492 63.9294 29.8994 63.7177 30.1975Z" fill="#364E89"/>
</svg>
